<?xml version="1.0" standalone="no"?>
<!DOCTYPE svg PUBLIC "-//W3C//DTD SVG 20010904//EN"
 "http://www.w3.org/TR/2001/REC-SVG-20010904/DTD/svg10.dtd">
<svg version="1.0" xmlns="http://www.w3.org/2000/svg"
 width="300.000000pt" height="243.000000pt" viewBox="0 0 300.000000 243.000000"
 preserveAspectRatio="xMidYMid meet">
<metadata>
Created by potrace 1.10, written by Peter Selinger 2001-2011
</metadata>
<g transform="translate(0.000000,243.000000) scale(0.100000,-0.100000)"
fill="#000000" stroke="none">
<path d="M2181 1756 c-40 -41 -52 -58 -47 -74 8 -25 100 -112 119 -112 23 0
40 28 33 55 l-6 25 128 0 c86 0 132 4 140 12 17 17 15 55 -4 62 -9 3 -72 6
-140 6 l-124 0 6 25 c7 29 -10 55 -35 55 -9 0 -41 -24 -70 -54z"/>
<path d="M1210 1585 c-7 -8 -10 -25 -6 -40 l6 -24 -131 -3 c-113 -3 -133 -6
-143 -20 -8 -13 -8 -23 0 -35 10 -15 30 -18 143 -21 l131 -3 -6 -24 c-7 -29
10 -55 36 -55 19 0 120 102 120 121 0 18 -104 119 -122 119 -9 0 -21 -7 -28
-15z"/>
<path d="M1998 1398 c-17 -14 -258 -316 -258 -323 0 -3 266 -5 590 -5 l590 0
0 170 0 170 -453 0 c-348 0 -457 -3 -469 -12z"/>
<path d="M695 1274 c-87 -13 -133 -28 -184 -59 -78 -48 -137 -55 -193 -22 -59
34 -100 41 -159 27 -70 -17 -79 -34 -79 -152 l0 -98 738 2 737 3 116 145 c64
80 115 148 112 153 -2 4 -63 7 -134 7 -105 0 -152 -5 -242 -26 -100 -23 -126
-26 -242 -21 -71 3 -167 13 -213 21 -94 17 -212 26 -257 20z"/>
<path d="M1509 788 c-89 -112 -166 -209 -172 -215 -7 -10 115 -13 606 -13 612
0 616 0 622 21 17 53 154 113 286 125 l69 7 0 138 0 139 -123 0 -123 0 -38
-50 c-66 -87 -148 -140 -215 -140 -73 0 -96 60 -65 168 l6 22 -346 0 -345 0
-162 -202z m733 137 c8 -19 8 -28 -2 -40 -23 -28 -70 -12 -70 25 0 42 54 54
72 15z m-317 -15 c146 -71 64 -245 -115 -244 -169 2 -222 167 -76 239 62 31
133 33 191 5z m895 5 c10 -12 10 -18 0 -30 -25 -30 -61 -7 -46 30 3 8 12 15
19 15 8 0 20 -7 27 -15z m-682 -103 c4 -28 -24 -40 -45 -19 -21 21 -9 49 19
45 15 -2 24 -11 26 -26z m440 -60 c17 -22 15 -67 -4 -82 -8 -8 -29 -13 -46
-13 -58 0 -78 66 -31 102 28 23 59 20 81 -7z m-323 -68 c19 -20 16 -63 -6 -77
-26 -16 -68 0 -75 29 -12 48 46 83 81 48z m-290 -44 c13 -41 -43 -70 -64 -33
-13 25 5 53 34 53 15 0 26 -7 30 -20z"/>
<path d="M1756 829 c-39 -31 -31 -60 20 -78 37 -13 46 -13 87 3 56 21 70 51
37 78 -32 26 -109 24 -144 -3z"/>
<path d="M2445 967 c-8 -13 -18 -37 -21 -55 -6 -27 -4 -32 13 -32 22 0 95 53
119 88 15 22 15 22 -40 22 -47 0 -58 -4 -71 -23z"/>
<path d="M80 675 l0 -215 315 0 c311 0 315 0 315 20 0 12 7 34 15 50 46 88
151 80 236 -19 l44 -51 71 0 71 0 109 137 c150 187 139 171 118 194 -17 18
-17 21 -1 37 15 14 21 15 37 4 18 -11 24 -9 45 15 13 16 25 31 25 36 0 4 -315
7 -700 7 l-700 0 0 -215z m1150 189 c52 -21 80 -66 80 -129 0 -40 -5 -52 -33
-80 -85 -85 -227 -31 -227 87 0 53 26 94 75 118 48 24 54 24 105 4z m-1010
-33 c20 -38 -13 -71 -51 -51 -21 12 -25 40 -7 58 18 18 46 14 58 -7z m385 -21
c0 -18 -6 -26 -23 -28 -24 -4 -38 18 -28 44 3 9 15 14 28 12 17 -2 23 -10 23
-28z m-137 -7 c88 -55 77 -179 -20 -229 -62 -32 -138 -5 -170 61 -59 121 76
241 190 168z m344 5 c24 -20 28 -44 12 -67 -20 -27 -59 -27 -78 1 -20 29 -20
34 4 58 23 23 40 25 62 8z m142 -94 c21 -8 21 -48 0 -65 -31 -26 -70 25 -44
56 14 17 21 18 44 9z m-346 -126 c28 -28 1 -75 -37 -63 -25 8 -34 31 -21 56
12 21 40 25 58 7z m-388 -33 c17 -20 5 -45 -20 -45 -23 0 -35 22 -26 45 7 19
30 19 46 0z m934 -32 c9 -21 -16 -46 -37 -37 -17 6 -23 35 -10 47 12 13 41 7
47 -10z"/>
<path d="M1147 782 c-23 -25 -22 -69 2 -82 46 -24 84 -3 84 47 0 47 -55 69
-86 35z"/>
<path d="M360 730 c-11 -11 -20 -28 -20 -38 0 -24 31 -52 57 -52 23 0 53 30
53 53 0 21 -35 57 -55 57 -8 0 -24 -9 -35 -20z"/>
<path d="M2772 614 c-52 -14 -112 -40 -112 -49 0 -3 59 -5 130 -5 l130 0 0 35
0 35 -47 -1 c-27 0 -72 -7 -101 -15z"/>
<path d="M797 503 c-4 -3 -7 -15 -7 -25 0 -15 8 -18 58 -18 l57 1 -28 24 c-27
24 -66 33 -80 18z"/>
<path d="M1132 315 c-73 -91 -132 -167 -132 -170 0 -3 56 -5 125 -5 l125 0 0
80 0 80 70 35 c58 29 74 33 91 25 30 -16 20 -50 -21 -77 -64 -40 -72 -51 -68
-96 l4 -42 387 -3 387 -2 0 47 -1 48 -62 35 c-58 33 -62 38 -65 75 -5 62 47
85 68 30 5 -12 35 -37 67 -55 32 -18 61 -38 65 -44 4 -6 8 -39 8 -73 l0 -63
160 0 159 0 3 68 c3 63 5 67 27 70 35 5 51 -22 51 -85 l0 -53 170 0 170 0 0
170 0 170 -828 0 -828 0 -132 -165z m1607 20 c34 -40 36 -46 19 -63 -20 -20
-51 -13 -85 20 -36 35 -43 72 -16 87 22 12 42 1 82 -44z m-921 3 c4 -36 -35
-57 -73 -40 -50 23 -23 75 35 70 30 -3 35 -7 38 -30z m601 13 c17 -30 -8 -53
-53 -49 -76 6 -71 68 5 68 27 0 41 -5 48 -19z"/>
<path d="M80 260 l0 -120 405 0 404 0 82 103 c45 56 89 110 97 120 14 16 -10
17 -486 17 l-502 0 0 -120z"/>
</g>
</svg>
